<?xml version="1.0" standalone="no"?><!DOCTYPE svg PUBLIC "-//W3C//DTD SVG 1.1//EN" "http://www.w3.org/Graphics/SVG/1.1/DTD/svg11.dtd"><svg class="icon" width="200px" height="200.00px" viewBox="0 0 1024 1024" version="1.1" xmlns="http://www.w3.org/2000/svg"><path fill="#ffffff" d="M717.824 487.8592l-283.69408-163.57888c-5.8368-3.35872-11.50976-5.05344-16.88576-5.05344-10.89536 0-23.61344 7.67488-23.61344 29.2864v326.95808c0 21.61152 12.71808 29.29664 23.61344 29.29664 5.37088 0 11.05408-1.70496 16.89088-5.07904l284.02688-163.57376c10.24-5.89312 16.10752-14.6176 16.10752-23.936 0.01024-9.43616-5.9904-18.30912-16.44544-24.32z"  /><path fill="#ffffff" d="M880.64 955.264H143.36c-62.11072 0-112.64-50.52928-112.64-112.64v-661.248c0-62.11072 50.52928-112.64 112.64-112.64h737.28c62.11072 0 112.64 50.52928 112.64 112.64v661.248c0 62.11072-50.52928 112.64-112.64 112.64z m-737.28-845.568c-39.5264 0-71.68 32.1536-71.68 71.68v661.248c0 39.5264 32.1536 71.68 71.68 71.68h737.28c39.5264 0 71.68-32.1536 71.68-71.68v-661.248c0-39.5264-32.1536-71.68-71.68-71.68H143.36z"  /></svg>