<?xml version="1.0" standalone="no"?><!DOCTYPE svg PUBLIC "-//W3C//DTD SVG 1.1//EN" "http://www.w3.org/Graphics/SVG/1.1/DTD/svg11.dtd"><svg class="icon" width="200px" height="200.00px" viewBox="0 0 1024 1024" version="1.1" xmlns="http://www.w3.org/2000/svg"><path fill="#ffffff" d="M89.6 328.533333c17.066667-17.066667 42.666667-17.066667 59.733333 0l392.533334 392.533334c17.066667 17.066667 17.066667 42.666667 0 59.733333-17.066667 17.066667-42.666667 17.066667-59.733334 0L89.6 388.266667c-17.066667-12.8-17.066667-42.666667 0-59.733334z m844.8 0c17.066667 17.066667 17.066667 42.666667 0 59.733334l-392.533333 392.533333c-17.066667 17.066667-42.666667 17.066667-59.733334 0-17.066667-17.066667-17.066667-42.666667 0-59.733333l392.533334-392.533334c17.066667-17.066667 42.666667-12.8 59.733333 0z"  /></svg>