<?xml version="1.0" standalone="no"?><!DOCTYPE svg PUBLIC "-//W3C//DTD SVG 1.1//EN" "http://www.w3.org/Graphics/SVG/1.1/DTD/svg11.dtd"><svg class="icon" width="200px" height="200.00px" viewBox="0 0 1024 1024" version="1.1" xmlns="http://www.w3.org/2000/svg"><path fill="#75646c" d="M512 0c282.7776 0 512 229.2224 512 512s-229.2224 512-512 512S0 794.7776 0 512 229.2224 0 512 0z m0 61.44a450.56 450.56 0 1 0 0 901.12 450.56 450.56 0 0 0 0-901.12z m-81.92 256a51.2 51.2 0 0 1 28.416 8.6016l214.8864 143.2576a51.2 51.2 0 0 1 0 85.1968l-214.8864 143.2576a51.2 51.2 0 0 1-79.616-42.5984V368.64a51.2 51.2 0 0 1 51.2-51.2z m10.24 70.2464l0.0512 248.32 186.1632-124.16L440.32 387.6864z"  /></svg>